<svg xmlns="http://www.w3.org/2000/svg" width="150.558" height="99.646" viewBox="0 0 150.558 99.646">
  <g id="Group_279" data-name="Group 279" transform="translate(0.51 0.599)">
    <g id="Group_41" data-name="Group 41">
      <g id="Group_40" data-name="Group 40" transform="translate(0 0)">
        <g id="Group_39" data-name="Group 39">
          <path id="Path_73" data-name="Path 73" d="M521.12,442.5a2.966,2.966,0,0,0,1.74,1.527l19.108,6.561a2.726,2.726,0,0,0,.977.152,3.042,3.042,0,0,0,2.87-2.044l14.987-43.74.765.275a15.513,15.513,0,0,0,11.9-.672l1.862-.915a9.349,9.349,0,0,1,7.141-.427l34.86,12.025a6.73,6.73,0,0,1-2.29,3.754c-1.4.977-3.572.977-6.411,0l-15.626-5.341a3.021,3.021,0,0,0-2.412.215,3.09,3.09,0,0,0-1.5,1.892c-.03.092-2.227,8.151-9,11.782-4.274,2.289-9.615,2.349-15.874.212a3.031,3.031,0,0,0-1.952,5.739,32.245,32.245,0,0,0,10.377,1.892,21.624,21.624,0,0,0,10.348-2.532c6.1-3.3,9.34-8.975,10.835-12.485l12.822,4.4c4.761,1.617,8.728,1.372,11.812-.765,4.854-3.357,5.189-9.92,5.219-10.653a3.093,3.093,0,0,0-2.045-2.962L584.4,397.537a15.486,15.486,0,0,0-11.782.732l-1.862.917a9.474,9.474,0,0,1-7.236.427l-3.082-1.1a2,2,0,0,0-.58-.275l-19.016-6.623a3.023,3.023,0,0,0-3.847,1.892l-16.026,46.7A3.155,3.155,0,0,0,521.12,442.5Zm20.635-44.2,13.37,4.579-14.042,41-13.37-4.579Z" transform="translate(-520.82 -391.449)" fill="#555" stroke="#666" stroke-width="1"/>
          <path id="Path_74" data-name="Path 74" d="M535.121,470.023a8.855,8.855,0,0,0,7.663,4.944,9.106,9.106,0,0,0,.885,3.877,8.707,8.707,0,0,0,5.1,4.486,8.65,8.65,0,0,0,6.746-.427l1.587-.792a9.164,9.164,0,0,0,.825,2.747,8.7,8.7,0,0,0,5.1,4.487,8.643,8.643,0,0,0,6.743-.427l34.707-17a89.311,89.311,0,0,0,21.245-14.5l7.753-7.113,17.734-8.668a3.006,3.006,0,0,0,1.375-4.029l-21.613-44.352a3.031,3.031,0,0,0-4.059-1.372l-18.131,8.883a3.007,3.007,0,0,0-1.375,4.029L628.1,447.1l-6.409,5.891a84.25,84.25,0,0,1-19.81,13.522l-34.707,17a2.8,2.8,0,0,1-2.167.12,2.861,2.861,0,0,1-1.617-1.435,2.816,2.816,0,0,1-.122-2.167,2.877,2.877,0,0,1,1.435-1.617l19.413-9.493a3.01,3.01,0,1,0-2.654-5.4l-19.413,9.5h0l-9.158,4.486a2.817,2.817,0,0,1-2.167.122,2.879,2.879,0,0,1-1.617-1.435,2.8,2.8,0,0,1-.122-2.167,2.873,2.873,0,0,1,1.435-1.62l27.839-13.612a3.011,3.011,0,0,0-2.657-5.4l-31.288,15.292a2.864,2.864,0,0,1-3.784-1.282,2.806,2.806,0,0,1-.123-2.167,2.87,2.87,0,0,1,1.435-1.617l12.332-6.044h0l16.024-7.846a3.009,3.009,0,1,0-2.654-5.4L542.6,456.531a2.825,2.825,0,0,1-2.5-5.066l13.247-6.474a3.009,3.009,0,1,0-2.654-5.4l-13.25,6.471a8.869,8.869,0,0,0-1.555,14.957A8.727,8.727,0,0,0,535.121,470.023Zm79.027-65.17,12.7-6.226,19.046,38.919-12.7,6.226Z" transform="translate(-503.351 -391.287)" fill="#555" stroke="#666" stroke-width="1"/>
        </g>
      </g>
    </g>
  </g>
</svg>
