<svg xmlns="http://www.w3.org/2000/svg" width="136.568" height="120.997" viewBox="0 0 136.568 120.997">
  <g id="Group_278" data-name="Group 278" transform="translate(1 1)">
    <g id="Group_27" data-name="Group 27" transform="translate(0 0)">
      <g id="Group_26" data-name="Group 26">
        <path id="Path_59" data-name="Path 59" d="M162.216,309.95a8.694,8.694,0,0,0,5.8-2.225l10.022,5.8a2.772,2.772,0,0,0,1.347.356,2.728,2.728,0,0,0,1.374-5.082l-10-5.767a9.68,9.68,0,0,0,.193-1.785,8.723,8.723,0,0,0-5.987-8.267V281.416a2.719,2.719,0,0,0-5.438,0v11.562a8.665,8.665,0,0,0-6.042,8.24,7.66,7.66,0,0,0,.193,1.785l-10,5.767a2.728,2.728,0,0,0,1.374,5.082,2.6,2.6,0,0,0,1.344-.359l10.025-5.794A8.583,8.583,0,0,0,162.216,309.95Zm0-12a3.268,3.268,0,1,1-3.267,3.27A3.26,3.26,0,0,1,162.216,297.948Z" transform="translate(-94.712 -225.529)" fill="#555" stroke="#666" stroke-width="2"/>
        <path id="Path_60" data-name="Path 60" d="M190,314.23a2.706,2.706,0,0,0,2.718-2.718v-6.73A7.389,7.389,0,0,0,190,299.015a79.767,79.767,0,0,0-13.237-8.651v-6.812a7.117,7.117,0,0,0,1.975-4.943v-9.831a11.58,11.58,0,0,0-11.562-11.562h-2.114A11.58,11.58,0,0,0,153.5,268.779v9.831a7.108,7.108,0,0,0,1.978,4.943v6.784a80.814,80.814,0,0,0-13.237,8.651,7.432,7.432,0,0,0-2.72,5.767v6.728a2.719,2.719,0,1,0,5.438,0v-6.728a2.03,2.03,0,0,1,.743-1.564,75.138,75.138,0,0,1,13.428-8.624,3.1,3.1,0,0,0,1.757-2.829v-9.475a2.725,2.725,0,0,0-1.208-2.252,1.761,1.761,0,0,1-.767-1.428v-9.8a6.128,6.128,0,0,1,6.124-6.124h2.114a6.128,6.128,0,0,1,6.124,6.124v9.8a1.693,1.693,0,0,1-.767,1.428,2.659,2.659,0,0,0-1.208,2.252v9.475a3.145,3.145,0,0,0,1.757,2.829,75.813,75.813,0,0,1,13.428,8.624,2.03,2.03,0,0,1,.743,1.564v6.728A2.813,2.813,0,0,0,190,314.23Z" transform="translate(-98.845 -257.217)" fill="#555" stroke="#666" stroke-width="2"/>
        <path id="Path_61" data-name="Path 61" d="M209.155,336.527V329.8a7.392,7.392,0,0,0-2.718-5.767A78.7,78.7,0,0,0,193.2,315.38V308.57a7.129,7.129,0,0,0,1.978-4.945v-9.8a11.58,11.58,0,0,0-11.562-11.562H181.5a11.58,11.58,0,0,0-11.562,11.562v9.834a7.128,7.128,0,0,0,1.978,4.943v6.809a80.981,80.981,0,0,0-13.237,8.651,7.433,7.433,0,0,0-2.718,5.767v6.73a2.718,2.718,0,0,0,5.435,0v-6.73a2.03,2.03,0,0,1,.743-1.564,75.027,75.027,0,0,1,13.43-8.624,3.206,3.206,0,0,0,1.785-2.829v-9.475a2.723,2.723,0,0,0-1.208-2.25,1.761,1.761,0,0,1-.77-1.428v-9.834A6.131,6.131,0,0,1,181.5,287.7h2.116a6.131,6.131,0,0,1,6.124,6.124v9.8a1.69,1.69,0,0,1-.77,1.428,2.665,2.665,0,0,0-1.208,2.252v9.475a3.145,3.145,0,0,0,1.757,2.829,75.888,75.888,0,0,1,13.43,8.624,2.036,2.036,0,0,1,.74,1.564v6.73a2.733,2.733,0,0,0,5.465,0Z" transform="translate(-74.587 -220.275)" fill="#555" stroke="#666" stroke-width="2"/>
        <path id="Path_62" data-name="Path 62" d="M173.534,339.245a2.709,2.709,0,0,0,2.72-2.718V329.8a7.4,7.4,0,0,0-2.72-5.767A78.7,78.7,0,0,0,160.3,315.38V308.57a7.118,7.118,0,0,0,1.978-4.945v-9.8a11.58,11.58,0,0,0-11.562-11.562h-2.087a11.58,11.58,0,0,0-11.564,11.562v9.834a7.127,7.127,0,0,0,1.978,4.943v6.809a80.98,80.98,0,0,0-13.237,8.651,7.433,7.433,0,0,0-2.718,5.767v6.73a2.719,2.719,0,0,0,5.438,0v-6.73a2.035,2.035,0,0,1,.74-1.564,75.887,75.887,0,0,1,13.43-8.624,3.2,3.2,0,0,0,1.785-2.829v-9.475a2.717,2.717,0,0,0-1.208-2.25,1.761,1.761,0,0,1-.77-1.428v-9.834a6.132,6.132,0,0,1,6.126-6.124h2.114a6.13,6.13,0,0,1,6.124,6.124v9.8a1.693,1.693,0,0,1-.767,1.428,2.661,2.661,0,0,0-1.21,2.252v9.475a3.149,3.149,0,0,0,1.757,2.829,75.7,75.7,0,0,1,13.43,8.624,2.03,2.03,0,0,1,.743,1.564v6.73A2.724,2.724,0,0,0,173.534,339.245Z" transform="translate(-123.085 -220.275)" fill="#555" stroke="#666" stroke-width="2"/>
      </g>
    </g>
  </g>
</svg>
