<svg id="Group_276" data-name="Group 276" xmlns="http://www.w3.org/2000/svg" width="138.518" height="105.511" viewBox="0 0 138.518 105.511">
  <g id="Group_31" data-name="Group 31" transform="translate(118.226 48.697)">
    <g id="Group_30" data-name="Group 30">
      <path id="Path_69" data-name="Path 69" d="M450.868,282.961H438.694a4.059,4.059,0,1,0,0,8.117h12.174a4.059,4.059,0,0,0,0-8.117Z" transform="translate(-434.634 -282.961)" fill="#666"/>
    </g>
  </g>
  <g id="Group_33" data-name="Group 33" transform="translate(114.168 64.929)">
    <g id="Group_32" data-name="Group 32">
      <path id="Path_70" data-name="Path 70" d="M448.13,298.461l-8.117-8.117a4.059,4.059,0,0,0-5.74,5.74l8.117,8.115a4.058,4.058,0,0,0,5.74-5.737Z" transform="translate(-433.086 -289.154)" fill="#666"/>
    </g>
  </g>
  <g id="Group_35" data-name="Group 35" transform="translate(114.168 24.348)">
    <g id="Group_34" data-name="Group 34">
      <path id="Path_71" data-name="Path 71" d="M448.13,274.858a4.062,4.062,0,0,0-5.74,0l-8.117,8.117a4.059,4.059,0,0,0,5.74,5.74l8.117-8.117A4.062,4.062,0,0,0,448.13,274.858Z" transform="translate(-433.086 -273.671)" fill="#666"/>
    </g>
  </g>
  <g id="Group_37" data-name="Group 37">
    <g id="Group_36" data-name="Group 36">
      <path id="Path_72" data-name="Path 72" d="M483.4,264.381a12.192,12.192,0,0,0-12.038,10.358l-3.7,3.7a36.551,36.551,0,0,1-25.384,10.29H417.932a12.2,12.2,0,0,0-11.477,8.117h-.7a16.231,16.231,0,0,0,0,32.463h.7a12.241,12.241,0,0,0,7.42,7.42v20.989a12.174,12.174,0,0,0,24.349,0V337.427h4.057a36.551,36.551,0,0,1,25.384,10.29l3.7,3.7a12.174,12.174,0,0,0,24.212-1.816V276.555A12.189,12.189,0,0,0,483.4,264.381ZM405.757,321.2a8.117,8.117,0,0,1,0-16.234Zm24.349,36.523a4.059,4.059,0,0,1-8.117,0V337.427h8.117Zm8.117-28.409H417.932a4.06,4.06,0,0,1-4.057-4.057V300.9a4.06,4.06,0,0,1,4.057-4.057h20.291Zm33.006,10.646a44.343,44.343,0,0,0-24.917-10.46V296.66a44.342,44.342,0,0,0,24.917-10.46Zm16.234,9.645a4.063,4.063,0,0,1-4.06,4.057h0a4.06,4.06,0,0,1-4.057-4.057V276.555a4.059,4.059,0,1,1,8.117,0Z" transform="translate(-389.526 -264.381)" fill="#555"/>
    </g>
  </g>
</svg>
